<svg id="visual" viewBox="0 0 900 600" width="900" height="600" xmlns="http://www.w3.org/2000/svg" xmlns:xlink="http://www.w3.org/1999/xlink" version="1.1"><path d="M0 424L30 440.8C60 457.7 120 491.3 180 507.7C240 524 300 523 360 519.7C420 516.3 480 510.7 540 506C600 501.3 660 497.7 720 485.7C780 473.7 840 453.3 870 443.2L900 433L900 601L870 601C840 601 780 601 720 601C660 601 600 601 540 601C480 601 420 601 360 601C300 601 240 601 180 601C120 601 60 601 30 601L0 601Z" fill="#2a2524" stroke-linecap="round" stroke-linejoin="miter"></path></svg>